<?xml version="1.0" encoding="UTF-8"?>
<svg xmlns="http://www.w3.org/2000/svg" width="301" height="66" viewBox="0 0 301 66" fill="none">
  <g clip-path="url(#clip0_9202_149)">
    <path d="M41.3132 63.9641C38.1367 65.3203 34.6712 66 30.9134 66C22.2888 66 14.9336 62.9068 8.85082 56.7171C2.76804 50.5243 0 41.4208 0 32.591C0 22.9965 2.2402 16.0831 8.66544 9.51268C19.9795 -2.05793 34.4827 0.147947 34.8566 0.204589L34.8251 0.956663H34.423C25.7041 0.956663 19.7407 8.37356 20.3 32.7263C20.5953 45.5839 22.4177 53.5578 26.2508 58.3534C29.2199 62.0005 32.8269 63.6809 37.1407 63.6809C38.3127 63.6809 39.7108 63.6368 41.087 63.2152L41.3132 63.9641Z" fill="white"></path>
    <path d="M49.7053 10.9381C49.7053 15.6362 45.8973 19.3557 40.6503 18.6445C37.6969 18.2449 35.2116 16.0894 34.445 13.207C33.0248 7.86062 36.8108 3.09958 41.7877 3.09958C46.045 3.09958 49.7053 6.58303 49.7053 10.9381Z" fill="white"></path>
    <path d="M85.5579 65.6161V64.8641L82.4191 63.9861C81.863 63.8382 81.8755 63.6242 81.8724 63.2592L81.8315 2.31919C81.8284 2.10521 81.9572 1.95416 82.3657 1.83773C82.7741 1.7213 85.5045 0.972377 85.5045 0.972377V0.22345H64.3247V0.96923C64.3247 0.96923 66.9514 1.69613 67.4635 1.83773C67.9756 1.98248 68.007 2.14612 68.007 2.56463C68.007 2.56463 68.0133 63.2781 68.0133 63.5078C68.0133 63.7375 67.9159 63.8634 67.4792 63.9861L64.3436 64.8641V65.6161H85.5579Z" fill="white"></path>
    <path d="M177.723 14.5286C176.9 16.2026 174.779 18.9907 170.352 18.9907C164.81 18.9907 161.762 15.139 161.762 9.64481C161.762 4.15058 165.077 0.29895 170.352 0.29895C174.54 0.29895 176.636 2.87614 177.538 4.44008L174.754 6.16765C173.878 4.28274 172.448 3.16564 170.352 3.16564C167.173 3.16564 165.262 5.71451 165.262 9.64481C165.262 13.5751 167.119 16.0453 170.352 16.0453C172.395 16.0453 173.852 15.01 174.701 13.2573L177.723 14.5317V14.5286Z" fill="white"></path>
    <path d="M189.829 15.7747C189.829 16.5708 189.936 16.8383 190.652 16.8383H190.813V18.8302C190.652 18.8554 190.256 18.9624 189.38 18.9624C188.214 18.9624 187.391 18.6446 187.152 17.6628H187.127C186.624 18.2481 185.616 19.0159 183.363 19.0159C180.925 19.0159 178.908 17.7949 178.908 15.0321C178.908 14.0755 179.172 13.358 179.624 12.801C180.394 11.8727 181.72 11.3661 183.363 11.0766L186.147 10.5983C186.81 10.4661 186.942 10.4126 186.942 9.93434V9.72036C186.942 8.65676 186.254 8.12811 184.689 8.12811C182.992 8.12811 182.116 8.84557 182.144 10.3308L179.307 10.1452C179.253 7.03933 181.798 5.79007 184.821 5.79007C187.843 5.79007 189.832 6.71836 189.832 9.50638V15.7716L189.829 15.7747ZM186.939 14.1825V12.6437C186.489 12.8042 186.115 12.908 185.217 13.0937L184.051 13.3328C182.618 13.6255 181.984 13.9968 181.984 15.0069C181.984 16.017 182.672 16.7345 184.158 16.7345C185.801 16.7345 186.942 15.91 186.942 14.1856L186.939 14.1825Z" fill="white"></path>
    <path d="M204.094 18.6698H201.071V12.2693C201.071 11.3126 201.046 10.4913 200.86 9.85255C200.597 8.94943 199.934 8.39246 198.633 8.39246C196.751 8.39246 195.849 9.85255 195.849 11.8979V18.6698H192.827V6.03239H195.849V7.65297C196.433 6.53902 197.863 5.71457 199.773 5.71457C201.206 5.71457 202.397 6.13938 203.245 7.28165C203.83 8.1061 204.094 9.05957 204.094 11.5046V18.6729V18.6698Z" fill="white"></path>
    <path d="M216.375 15.7747C216.375 16.5708 216.482 16.8383 217.198 16.8383H217.359V18.8302C217.198 18.8554 216.803 18.9624 215.926 18.9624C214.76 18.9624 213.937 18.6446 213.698 17.6628H213.673C213.171 18.2481 212.162 19.0159 209.909 19.0159C207.471 19.0159 205.454 17.7949 205.454 15.0321C205.454 14.0755 205.718 13.358 206.17 12.801C206.94 11.8727 208.266 11.3661 209.909 11.0766L212.693 10.5983C213.356 10.4661 213.488 10.4126 213.488 9.93434V9.72036C213.488 8.65676 212.8 8.12811 211.235 8.12811C209.538 8.12811 208.662 8.84557 208.69 10.3308L205.853 10.1452C205.8 7.03933 208.345 5.79007 211.367 5.79007C214.39 5.79007 216.378 6.71836 216.378 9.50638V15.7716L216.375 15.7747ZM213.485 14.1825V12.6437C213.035 12.8042 212.662 12.908 211.763 13.0937L210.597 13.3328C209.165 13.6255 208.53 13.9968 208.53 15.0069C208.53 16.017 209.218 16.7345 210.704 16.7345C212.347 16.7345 213.488 15.91 213.488 14.1856L213.485 14.1825Z" fill="white"></path>
    <path d="M218.125 12.4045C218.125 8.47424 220.3 5.71453 223.718 5.71453C225.361 5.71453 226.741 6.51066 227.429 7.41378V0.613647H230.451V18.6697H227.429V17.3418C226.634 18.3236 225.415 18.9875 223.718 18.9875C220.35 18.9875 218.125 16.1995 218.125 12.4014V12.4045ZM224.356 8.31375C222.42 8.31375 221.148 9.80217 221.148 12.351C221.148 14.8999 222.42 16.36 224.356 16.36C226.291 16.36 227.564 14.7929 227.564 12.351C227.564 9.90916 226.266 8.31375 224.356 8.31375Z" fill="white"></path>
    <path d="M235.758 3.69432H232.735V0.613647H235.758V3.69432ZM235.758 18.6697H232.735V6.03236H235.758V18.6729V18.6697Z" fill="white"></path>
    <path d="M248.8 15.7747C248.8 16.5708 248.907 16.8383 249.623 16.8383H249.783V18.8302C249.623 18.8554 249.227 18.9624 248.351 18.9624C247.185 18.9624 246.362 18.6446 246.123 17.6628H246.098C245.595 18.2481 244.587 19.0159 242.334 19.0159C239.896 19.0159 237.879 17.7949 237.879 15.0321C237.879 14.0755 238.143 13.358 238.595 12.801C239.365 11.8727 240.691 11.3661 242.334 11.0766L245.118 10.5983C245.781 10.4661 245.913 10.4126 245.913 9.93434V9.72036C245.913 8.65676 245.225 8.12811 243.66 8.12811C241.963 8.12811 241.087 8.84557 241.115 10.3308L238.278 10.1452C238.224 7.03933 240.769 5.79007 243.792 5.79007C246.814 5.79007 248.803 6.71836 248.803 9.50638V15.7716L248.8 15.7747ZM245.909 14.1825V12.6437C245.46 12.8042 245.086 12.908 244.188 13.0937L243.022 13.3328C241.589 13.6255 240.955 13.9968 240.955 15.0069C240.955 16.017 241.643 16.7345 243.129 16.7345C244.772 16.7345 245.913 15.91 245.913 14.1856L245.909 14.1825Z" fill="white"></path>
    <path d="M262.75 18.6698H259.728V12.2693C259.728 11.3126 259.703 10.4913 259.517 9.85255C259.253 8.94943 258.59 8.39246 257.29 8.39246C255.407 8.39246 254.506 9.85255 254.506 11.8979V18.6698H251.483V6.03239H254.506V7.65297C255.09 6.53902 256.52 5.71457 258.43 5.71457C259.863 5.71457 261.054 6.13938 261.902 7.28165C262.486 8.1061 262.75 9.05957 262.75 11.5046V18.6729V18.6698Z" fill="white"></path>
    <path d="M174.032 52.17C173.023 50.9208 171.38 49.9925 169.366 49.9925C167.352 49.9925 166.051 51.0278 166.051 52.4092C166.051 53.7906 166.924 54.2406 168.967 54.6937L171.141 55.1721C174.509 55.943 176.947 57.0318 176.947 60.3233C176.947 63.6148 174.217 65.8993 169.708 65.8993C165.784 65.8993 163.107 63.9609 161.86 62.2082L164.511 60.295C165.335 61.6481 167.324 63.0578 169.868 63.0578C172.281 63.0578 173.529 62.0477 173.529 60.6159C173.529 59.1842 172.281 58.6775 170.453 58.2779L168.04 57.7461C165.096 57.1073 162.629 55.8612 162.629 52.5665C162.629 49.2719 165.627 47.2013 169.444 47.2013C173.262 47.2013 175.383 49.0327 176.445 50.2033L174.032 52.17Z" fill="white"></path>
    <path d="M187.448 57.5321C186.998 56.179 186.043 55.2476 184.504 55.2476C182.49 55.2476 181.217 56.736 181.217 59.2566C181.217 61.7771 182.518 63.2655 184.504 63.2655C186.228 63.2655 187.077 62.2554 187.526 61.1131L189.964 62.4159C189.38 63.769 187.658 65.8962 184.422 65.8962C180.762 65.8962 178.217 63.5582 178.217 59.3101C178.217 55.0619 180.947 52.6452 184.422 52.6452C187.366 52.6452 189.194 54.2123 189.964 56.2042L187.444 57.5321H187.448Z" fill="white"></path>
    <path d="M203.066 65.5815H200.044V59.181C200.044 58.2244 200.018 57.4031 199.83 56.7643C199.566 55.8612 198.903 55.3042 197.602 55.3042C195.72 55.3042 194.819 56.7643 194.819 58.8097V65.5815H191.796V47.5223H194.819V54.5616C195.403 53.4476 196.832 52.6232 198.743 52.6232C200.176 52.6232 201.369 53.048 202.218 54.1903C202.802 55.0147 203.066 55.9682 203.066 58.4132V65.5847V65.5815Z" fill="white"></path>
    <path d="M210.808 52.6452C214.654 52.6452 217.12 55.2476 217.12 59.3101C217.12 63.3725 214.682 65.8962 210.808 65.8962C206.934 65.8962 204.496 63.3473 204.496 59.3101C204.496 55.2728 206.962 52.6452 210.808 52.6452ZM210.808 63.297C212.743 63.297 214.123 61.7582 214.123 59.2597C214.123 56.7612 212.797 55.2224 210.808 55.2224C208.819 55.2224 207.493 56.736 207.493 59.2597C207.493 61.7834 208.872 63.297 210.808 63.297Z" fill="white"></path>
    <path d="M224.805 52.6452C228.651 52.6452 231.117 55.2476 231.117 59.3101C231.117 63.3725 228.679 65.8962 224.805 65.8962C220.931 65.8962 218.493 63.3473 218.493 59.3101C218.493 55.2728 220.959 52.6452 224.805 52.6452ZM224.805 63.297C226.741 63.297 228.12 61.7582 228.12 59.2597C228.12 56.7612 226.794 55.2224 224.805 55.2224C222.816 55.2224 221.49 56.736 221.49 59.2597C221.49 61.7834 222.87 63.297 224.805 63.297Z" fill="white"></path>
    <path d="M235.808 65.5815H232.786V47.5223H235.808V65.5815Z" fill="white"></path>
    <path d="M166.877 42.1477H163.695V24.0884H166.877V42.1477Z" fill="white"></path>
    <path d="M181.063 42.1476H178.041V35.7471C178.041 34.7905 178.015 33.9661 177.827 33.3304C177.563 32.4273 176.9 31.8703 175.599 31.8703C173.717 31.8703 172.816 33.3304 172.816 35.3758V42.1476H169.793V29.5071H172.816V31.1277C173.4 30.0137 174.83 29.1893 176.74 29.1893C178.173 29.1893 179.367 29.6141 180.215 30.7564C180.799 31.5808 181.063 32.5374 181.063 34.9793V42.1508V42.1476Z" fill="white"></path>
    <path d="M191.058 42.2546C190.473 42.3868 189.707 42.4655 188.805 42.4655C187.586 42.4655 186.313 42.2263 185.622 41.3767C185.119 40.7662 185.091 40.0488 185.091 38.8278V31.8703H182.386V29.5071H185.091V25.0985L188.114 24.4346V29.5071H191.058V31.8703H188.114V38.3243C188.114 39.0418 188.22 39.3879 188.459 39.6271C188.698 39.8914 189.201 39.9732 189.732 39.9732C190.263 39.9732 190.74 39.9197 191.058 39.8662V42.2578V42.2546Z" fill="white"></path>
    <path d="M204.449 39.2809C203.892 40.1589 202.196 42.4686 198.507 42.4686C194.819 42.4686 192.223 39.8127 192.223 35.722C192.223 31.6312 194.9 29.2145 198.429 29.2145C202.46 29.2145 204.395 32.0025 204.395 35.8793C204.395 36.0901 204.37 36.4363 204.37 36.6503H195.167C195.378 38.3778 196.44 39.8631 198.667 39.8631C200.895 39.8631 201.954 38.3212 202.353 37.6855L204.449 39.2778V39.2809ZM195.246 34.394H201.398C201.319 32.7483 200.125 31.6312 198.429 31.6312C196.732 31.6312 195.327 32.8804 195.246 34.394Z" fill="white"></path>
    <path d="M209.51 29.5071V31.3669C209.749 30.7281 210.758 29.1893 213.196 29.1893C213.356 29.1893 213.409 29.1893 213.673 29.2145V32.2951C213.381 32.27 213.089 32.2416 212.825 32.2416C211.207 32.2416 210.305 32.8269 209.856 33.9692C209.617 34.608 209.51 35.3506 209.51 36.4646V42.1476H206.488V29.5071H209.51Z" fill="white"></path>
    <path d="M226.979 42.1476H223.957V35.7471C223.957 34.7905 223.932 33.9661 223.743 33.3304C223.479 32.4273 222.816 31.8703 221.515 31.8703C219.633 31.8703 218.732 33.3304 218.732 35.3758V42.1476H215.709V29.5071H218.732V31.1277C219.316 30.0137 220.746 29.1893 222.656 29.1893C224.089 29.1893 225.283 29.6141 226.131 30.7564C226.715 31.5808 226.979 32.5374 226.979 34.9793V42.1508V42.1476Z" fill="white"></path>
    <path d="M239.726 39.2526C239.726 40.0488 239.833 40.3162 240.549 40.3162H240.71V42.3081C240.549 42.3333 240.153 42.4403 239.277 42.4403C238.111 42.4403 237.288 42.1225 237.049 41.1375H237.024C236.521 41.7228 235.513 42.4906 233.26 42.4906C230.822 42.4906 228.805 41.2697 228.805 38.5068C228.805 37.5502 229.069 36.8328 229.521 36.2758C230.291 35.3475 231.617 34.8409 233.26 34.5482L236.044 34.0699C236.707 33.9378 236.839 33.8843 236.839 33.406V33.1951C236.839 32.1315 236.151 31.6029 234.586 31.6029C232.889 31.6029 232.013 32.3203 232.041 33.8056L229.204 33.6199C229.15 30.5109 231.695 29.2648 234.718 29.2648C237.74 29.2648 239.729 30.1931 239.729 32.9843V39.2526H239.726ZM236.836 37.6604V36.1185C236.386 36.2789 236.012 36.3828 235.111 36.5716L233.945 36.8107C232.512 37.1034 231.878 37.4747 231.878 38.4848C231.878 39.4949 232.566 40.2124 234.052 40.2124C235.695 40.2124 236.836 39.3879 236.836 37.6635V37.6604Z" fill="white"></path>
    <path d="M249.724 42.2546C249.139 42.3868 248.373 42.4655 247.471 42.4655C246.252 42.4655 244.979 42.2263 244.288 41.3767C243.785 40.7662 243.757 40.0488 243.757 38.8278V31.8703H241.052V29.5071H243.757V25.0985L246.78 24.4346V29.5071H249.724V31.8703H246.78V38.3243C246.78 39.0418 246.887 39.3879 247.125 39.6271C247.364 39.8914 247.867 39.9732 248.398 39.9732C248.929 39.9732 249.406 39.9197 249.724 39.8662V42.2578V42.2546Z" fill="white"></path>
    <path d="M255.159 27.1691H252.137V24.0884H255.159V27.1691ZM255.159 42.1476H252.137V29.5071H255.159V42.1476Z" fill="white"></path>
    <path d="M263.036 29.2145C266.882 29.2145 269.348 31.8168 269.348 35.8793C269.348 39.9418 266.91 42.4655 263.036 42.4655C259.162 42.4655 256.724 39.9166 256.724 35.8793C256.724 31.842 259.19 29.2145 263.036 29.2145ZM263.036 39.8662C264.971 39.8662 266.351 38.3243 266.351 35.829C266.351 33.3336 265.025 31.7917 263.036 31.7917C261.047 31.7917 259.721 33.3053 259.721 35.829C259.721 38.3526 261.101 39.8662 263.036 39.8662Z" fill="white"></path>
    <path d="M282.18 42.1476H279.157V35.7471C279.157 34.7905 279.132 33.9661 278.944 33.3304C278.68 32.4273 278.017 31.8703 276.716 31.8703C274.834 31.8703 273.932 33.3304 273.932 35.3758V42.1476H270.91V29.5071H273.932V31.1277C274.517 30.0137 275.946 29.1893 277.857 29.1893C279.289 29.1893 280.483 29.6141 281.332 30.7564C281.916 31.5808 282.18 32.5374 282.18 34.9793V42.1508V42.1476Z" fill="white"></path>
    <path d="M295.09 39.2526C295.09 40.0488 295.197 40.3162 295.913 40.3162H296.073V42.3081C295.913 42.3333 295.517 42.4403 294.641 42.4403C293.475 42.4403 292.652 42.1225 292.413 41.1375H292.388C291.885 41.7228 290.877 42.4906 288.624 42.4906C286.186 42.4906 284.169 41.2697 284.169 38.5068C284.169 37.5502 284.433 36.8328 284.885 36.2758C285.655 35.3475 286.981 34.8409 288.624 34.5482L291.408 34.0699C292.071 33.9378 292.203 33.8843 292.203 33.406V33.1951C292.203 32.1315 291.515 31.6029 289.95 31.6029C288.253 31.6029 287.377 32.3203 287.405 33.8056L284.568 33.6199C284.514 30.5109 287.059 29.2648 290.082 29.2648C293.104 29.2648 295.093 30.1931 295.093 32.9843V39.2526H295.09ZM292.199 37.6604V36.1185C291.75 36.2789 291.376 36.3828 290.475 36.5716L289.309 36.8107C287.876 37.1034 287.241 37.4747 287.241 38.4848C287.241 39.4949 287.93 40.2124 289.416 40.2124C291.059 40.2124 292.199 39.3879 292.199 37.6635V37.6604Z" fill="white"></path>
    <path d="M301 42.1476H297.977V24.0884H301V42.1476Z" fill="white"></path>
    <path d="M134.647 18.6603C138.949 18.6603 142.43 15.1768 142.43 10.8658C142.43 6.55471 138.952 3.07126 134.647 3.07126C130.343 3.07126 126.865 6.55471 126.865 10.8658C126.865 15.1768 130.343 18.6603 134.647 18.6603Z" fill="white"></path>
    <path d="M113.958 48.5072C109.656 48.5072 106.175 51.9907 106.175 56.3017C106.175 60.6128 109.653 64.0962 113.958 64.0962C118.262 64.0962 121.74 60.6128 121.74 56.3017C121.74 51.9907 118.262 48.5072 113.958 48.5072Z" fill="white"></path>
    <path d="M147.385 45.886C147.385 21.5679 113.678 27.0904 113.678 10.8784C113.678 9.6228 113.848 8.42074 114.259 7.3414C116.748 0.833918 125.661 0.884266 127.512 0.922027L127.547 0.242328C125.592 0.132192 123.208 0.040936 120.713 0.450014C116.047 1.21467 112.654 2.94224 109.66 5.60125C109.6 5.65474 109.537 5.70509 109.477 5.76173C109.468 5.77117 109.455 5.78061 109.446 5.79005C105.836 9.05009 103.8 13.7734 103.8 19.5225C103.8 41.2571 138.188 35.2216 138.188 53.5704C138.188 55.3105 137.767 57.9192 136.394 59.5618C133.114 63.4889 128.86 64.9144 126.268 65.2605L126.535 65.9843C127.729 65.8805 128.807 65.6917 129.793 65.5028C134.732 64.5557 138.999 62.2585 141.802 59.2219C145.387 55.5182 147.378 50.883 147.378 45.8891L147.385 45.886Z" fill="white"></path>
  </g>
  <defs>
    <clipPath id="clip0_9202_149">
      <rect width="301" height="66" fill="white"></rect>
    </clipPath>
  </defs>
</svg>
